<svg width="270" height="270" xmlns="http://www.w3.org/2000/svg" xmlns:xlink="http://www.w3.org/1999/xlink" xml:space="preserve" overflow="hidden"><defs><clipPath id="clip0"><rect x="464" y="88" width="270" height="270"/></clipPath></defs><g clip-path="url(#clip0)" transform="translate(-464 -88)"><path d="M585.434 166.062C585.434 166.13 585.433 166.196 585.433 166.263 585.433 173.447 587.04 180.547 589.079 186.128 586.695 181.693 584.23 174.021 584.23 166.218 584.23 166.165 584.23 166.113 584.23 166.062 584.23 166.011 584.23 165.96 584.23 165.908 584.23 158.091 587.708 150.405 590.148 145.973 587.699 151.558 585.433 158.667 585.433 165.861 585.433 165.929 585.434 165.996 585.434 166.062ZM599.316 127.122C599.316 127.122 582.013 146.209 582.013 165.799 582.013 165.884 582.014 165.968 582.014 166.05 582.014 166.134 582.013 166.218 582.013 166.302 582.013 185.893 594.317 204.98 599.316 204.98 604.314 204.98 616.619 185.893 616.619 166.302 616.619 166.218 616.617 166.134 616.617 166.05 616.617 165.968 616.619 165.884 616.619 165.799 616.619 146.209 599.316 127.122 599.316 127.122" fill="#487307"/><path d="M584.23 251.347C584.23 251.296 584.23 251.244 584.23 251.193 584.23 251.142 584.23 251.091 584.23 251.039 584.23 243.234 586.695 235.563 589.079 231.128 587.04 236.709 585.433 243.809 585.433 250.992 585.433 251.06 585.434 251.126 585.434 251.193 585.434 251.261 585.433 251.327 585.433 251.394 585.433 258.588 587.699 265.698 590.148 271.283 587.708 266.85 584.23 259.164 584.23 251.347ZM599.316 212.276C594.317 212.276 582.013 231.365 582.013 250.954 582.013 251.038 582.014 251.122 582.014 251.205 582.014 251.289 582.013 251.372 582.013 251.456 582.013 271.046 599.316 290.135 599.316 290.135 599.316 290.135 616.619 271.046 616.619 251.456 616.619 251.372 616.617 251.289 616.617 251.205 616.617 251.122 616.619 251.038 616.619 250.954 616.619 231.365 604.314 212.276 599.316 212.276" fill="#487307"/><path d="M537.525 218.342C537.573 218.39 537.62 218.436 537.668 218.483 537.715 218.531 537.762 218.578 537.809 218.625 542.889 223.706 549.044 227.59 554.432 230.094 549.611 228.644 542.443 224.962 536.925 219.443 536.889 219.408 536.853 219.371 536.817 219.335 536.78 219.298 536.743 219.263 536.707 219.226 531.179 213.698 528.204 205.804 526.796 200.945 529.013 206.626 532.438 213.254 537.525 218.342ZM535.241 220.892C535.3 220.952 535.358 221.012 535.418 221.071 549.27 234.923 571.468 239.72 575.002 236.186 578.536 232.652 573.74 210.453 559.888 196.601 559.828 196.542 559.768 196.484 559.709 196.425 559.65 196.365 559.591 196.305 559.532 196.246 545.679 182.393 519.947 181.133 519.947 181.133 519.947 181.133 521.21 206.863 535.062 220.716 535.121 220.775 535.181 220.833 535.241 220.892" fill="#487307"/><path d="M538.765 268.85C538.729 268.814 538.693 268.777 538.657 268.74 538.62 268.706 538.584 268.669 538.547 268.631 533.02 263.105 530.045 255.212 528.636 250.351 530.854 256.032 534.279 262.662 539.366 267.748 539.413 267.795 539.461 267.842 539.508 267.889 539.556 267.937 539.602 267.984 539.65 268.033 544.73 273.111 550.886 276.996 556.274 279.501 551.451 278.05 544.284 274.367 538.765 268.85ZM561.549 245.832C561.49 245.772 561.432 245.713 561.373 245.654 547.521 231.801 521.788 230.538 521.788 230.538 521.788 230.538 523.05 256.271 536.903 270.122 536.962 270.181 537.022 270.241 537.082 270.3 537.141 270.36 537.199 270.419 537.258 270.479 551.111 284.331 573.308 289.127 576.843 285.592 580.378 282.058 575.581 259.861 561.728 246.009 561.669 245.949 561.609 245.892 561.549 245.832" fill="#487307"/><path d="M639.74 198.11C639.776 198.073 639.813 198.036 639.851 198.001 639.885 197.964 639.922 197.927 639.959 197.89 645.486 192.363 653.379 189.389 658.24 187.98 652.559 190.196 645.929 193.622 640.843 198.709 640.796 198.757 640.749 198.805 640.701 198.852 640.654 198.899 640.605 198.946 640.558 198.993 635.478 204.073 631.594 210.23 629.089 215.617 630.541 210.794 634.223 203.626 639.74 198.11ZM662.582 221.071C662.642 221.012 662.699 220.952 662.759 220.892 662.818 220.833 662.877 220.775 662.937 220.716 676.79 206.863 678.053 181.133 678.053 181.133 678.053 181.133 652.319 182.393 638.467 196.246 638.407 196.305 638.35 196.365 638.29 196.425 638.231 196.484 638.172 196.542 638.112 196.601 624.26 210.453 619.462 232.652 622.998 236.186 626.533 239.72 648.73 234.923 662.582 221.071" fill="#487307"/><path d="M639.851 247.407C639.885 247.37 639.922 247.333 639.959 247.298 645.486 241.769 653.379 238.794 658.24 237.388 652.559 239.604 645.929 243.028 640.843 248.116 640.796 248.163 640.749 248.21 640.701 248.257 640.654 248.304 640.605 248.352 640.558 248.399 635.478 253.479 631.594 259.635 629.089 265.023 630.541 260.202 634.223 253.034 639.74 247.515 639.776 247.478 639.813 247.444 639.851 247.407ZM638.29 245.832C638.231 245.892 638.172 245.949 638.112 246.009 624.26 259.861 619.462 282.058 622.998 285.592 626.533 289.127 648.73 284.331 662.582 270.479 662.642 270.419 662.699 270.36 662.759 270.3 662.818 270.241 662.877 270.181 662.937 270.122 676.79 256.271 678.053 230.538 678.053 230.538 678.053 230.538 652.319 231.801 638.467 245.654 638.407 245.713 638.35 245.772 638.29 245.832" fill="#487307"/><path d="M518.003 307.399C518.003 307.399 518.218 307.1 518.633 306.55 519.059 306.005 519.694 305.203 520.587 304.258 521.028 303.779 521.541 303.27 522.118 302.731 522.401 302.454 522.715 302.188 523.037 301.905 523.365 301.63 523.704 301.341 524.068 301.056 524.25 300.915 524.435 300.771 524.622 300.626 524.816 300.486 525.013 300.345 525.213 300.201 525.411 300.054 525.62 299.916 525.83 299.774 526.041 299.633 526.253 299.485 526.476 299.348 527.356 298.781 528.323 298.239 529.371 297.735 531.466 296.73 533.902 295.89 536.581 295.436 536.916 295.381 537.253 295.324 537.594 295.281 537.765 295.26 537.936 295.238 538.108 295.215 538.281 295.199 538.453 295.18 538.627 295.162 538.973 295.123 539.322 295.105 539.675 295.076 540.026 295.055 540.381 295.041 540.738 295.031 541.449 295.017 542.171 295.01 542.895 295.049 543.62 295.078 544.351 295.134 545.082 295.213 548.011 295.531 550.963 296.232 553.823 297.204 556.687 298.176 559.468 299.402 562.138 300.757 564.809 302.114 567.373 303.596 569.833 305.091 572.295 306.583 574.65 308.096 576.916 309.496 579.181 310.896 581.359 312.194 583.442 313.205 584.484 313.71 585.5 314.136 586.482 314.46 587.462 314.775 588.406 314.987 589.292 315.054 590.179 315.116 591.01 315.046 591.781 314.827 592.166 314.718 592.539 314.578 592.892 314.405 592.982 314.363 593.066 314.312 593.153 314.269 593.24 314.224 593.326 314.176 593.409 314.124 593.493 314.072 593.576 314.021 593.659 313.971 593.741 313.916 593.822 313.863 593.902 313.81 594.548 313.375 595.098 312.844 595.596 312.326 596.091 311.803 596.51 311.268 596.878 310.77 597.611 309.767 598.125 308.904 598.471 308.315 598.817 307.719 599 307.399 599 307.399 599 307.399 598.986 307.491 598.959 307.667 598.927 307.842 598.896 308.109 598.823 308.447 598.789 308.617 598.749 308.808 598.707 309.017 598.656 309.226 598.602 309.453 598.543 309.697 598.476 309.941 598.406 310.206 598.323 310.486 598.231 310.763 598.144 311.064 598.026 311.374 597.809 312 597.517 312.68 597.131 313.408 597.04 313.593 596.927 313.771 596.821 313.959 596.714 314.148 596.585 314.329 596.462 314.519 596.335 314.707 596.195 314.894 596.053 315.087 595.9 315.271 595.756 315.468 595.584 315.653 594.924 316.408 594.064 317.127 593.013 317.699 591.966 318.275 590.724 318.644 589.437 318.796 588.149 318.948 586.824 318.88 585.519 318.681 584.215 318.476 582.92 318.146 581.648 317.727 579.097 316.893 576.603 315.752 574.12 314.505 571.638 313.254 569.165 311.893 566.686 310.524 564.206 309.154 561.718 307.783 559.215 306.513 556.715 305.24 554.202 304.07 551.694 303.1 549.186 302.128 546.685 301.362 544.235 300.871 543.009 300.626 541.797 300.457 540.606 300.349 540.01 300.301 539.42 300.264 538.836 300.25 538.69 300.248 538.544 300.244 538.399 300.24 538.254 300.242 538.109 300.242 537.965 300.242 537.676 300.24 537.39 300.248 537.104 300.256 534.822 300.329 532.663 300.695 530.69 301.224 528.715 301.751 526.93 302.45 525.373 303.167 523.812 303.883 522.486 304.63 521.396 305.265 520.851 305.583 520.373 305.886 519.95 306.143 519.532 306.409 519.177 306.637 518.889 306.821 518.315 307.202 518.003 307.399 518.003 307.399" fill="#487307"/><path d="M679.276 308.549C679.264 308.54 678.945 308.339 678.371 307.956L677.334 307.294C677.201 307.214 677.063 307.128 676.92 307.039 676.606 306.845 676.281 306.644 675.922 306.435 674.866 305.82 673.582 305.096 672.063 304.402 670.311 303.594 668.642 302.982 666.96 302.533 664.912 301.984 662.855 301.675 660.855 301.613L660.813 301.611C660.59 301.605 660.365 301.599 660.137 301.599L659.614 301.597 659.196 301.607C658.715 301.619 658.179 301.647 657.509 301.701 656.309 301.81 655.14 301.978 654.034 302.202 651.769 302.653 649.334 303.38 646.798 304.365 644.549 305.234 642.129 306.332 639.403 307.723 636.881 309 634.385 310.377 631.971 311.71 629.668 312.981 627.059 314.422 624.493 315.716 621.424 317.258 619.044 318.274 616.777 319.017 615.364 319.479 613.991 319.818 612.694 320.021 611.764 320.163 610.867 320.235 610.022 320.235 609.472 320.235 608.925 320.203 608.407 320.144 606.916 319.966 605.51 319.533 604.336 318.888 603.216 318.278 602.232 317.495 601.41 316.563 601.264 316.404 601.143 316.253 601.036 316.118 600.992 316.062 600.948 316.007 600.904 315.953L600.879 315.925 600.822 315.845C600.688 315.664 600.549 315.478 600.417 315.283L600.395 315.25C600.358 315.193 600.321 315.136 600.282 315.081 600.194 314.947 600.096 314.795 600.001 314.631 599.963 314.564 599.93 314.508 599.899 314.453 599.825 314.326 599.741 314.182 599.663 314.027 599.415 313.557 599.195 313.086 599.001 312.618 598.807 313.086 598.588 313.557 598.339 314.027 598.261 314.182 598.178 314.326 598.104 314.453 598.071 314.508 598.038 314.564 598.006 314.621 597.907 314.795 597.808 314.945 597.719 315.078 597.682 315.136 597.643 315.193 597.607 315.25L597.585 315.283C597.453 315.476 597.315 315.663 597.182 315.843L597.123 315.923 597.098 315.953C597.053 316.007 597.009 316.062 596.965 316.118 596.858 316.253 596.737 316.404 596.591 316.563 595.77 317.495 594.785 318.278 593.662 318.889 592.492 319.533 591.085 319.966 589.598 320.144 589.075 320.203 588.532 320.235 587.979 320.235 587.136 320.235 586.24 320.163 585.315 320.023 584.01 319.818 582.637 319.479 581.226 319.017 578.958 318.274 576.578 317.258 573.512 315.718 570.945 314.424 568.334 312.981 566.031 311.71 563.618 310.377 561.123 309.001 558.602 307.724 555.872 306.332 553.453 305.234 551.205 304.365 548.667 303.38 546.234 302.653 543.97 302.202 542.859 301.978 541.687 301.81 540.484 301.7 539.828 301.647 539.289 301.619 538.804 301.607L538.387 301.597 537.971 301.599 537.864 301.599C537.639 301.599 537.416 301.605 537.193 301.611L537.144 301.613C535.145 301.675 533.09 301.984 531.041 302.533 529.359 302.982 527.692 303.594 525.941 304.399 524.42 305.096 523.136 305.82 522.08 306.435 521.722 306.644 521.396 306.845 521.081 307.039 520.938 307.128 520.801 307.214 520.668 307.294L519.631 307.956C519.056 308.339 518.739 308.539 518.726 308.549L512.887 312.222 516.899 306.611C516.909 306.597 517.129 306.289 517.551 305.732L517.566 305.712C517.939 305.236 518.632 304.352 519.596 303.333 520.037 302.854 520.556 302.335 521.181 301.748 521.426 301.511 521.684 301.285 521.935 301.066L522.169 300.86 522.375 300.689C522.647 300.461 522.928 300.225 523.233 299.987L523.81 299.538 524.42 299.1C524.621 298.952 524.834 298.809 525.039 298.671L525.218 298.55C525.387 298.435 525.562 298.318 525.752 298.2 526.694 297.593 527.714 297.025 528.786 296.513 531.205 295.35 533.752 294.538 536.356 294.1L536.488 294.076C536.791 294.025 537.103 293.974 537.431 293.933L537.97 293.866 538.488 293.812C538.743 293.783 539.005 293.763 539.259 293.745 539.362 293.739 539.599 293.72 539.599 293.72 539.92 293.702 540.268 293.687 540.694 293.673 541.023 293.666 541.337 293.662 541.652 293.662 542.133 293.662 542.563 293.673 542.967 293.694 543.714 293.724 544.481 293.782 545.232 293.863 548.14 294.179 551.178 294.87 554.261 295.92 556.99 296.844 559.768 298.032 562.752 299.546 565.116 300.748 567.59 302.14 570.539 303.93 572.045 304.844 573.515 305.767 574.937 306.658 575.85 307.232 576.747 307.796 577.631 308.342 579.721 309.633 581.944 310.967 584.035 311.983 585.058 312.479 586.023 312.878 586.908 313.17 587.82 313.465 588.66 313.643 589.396 313.701 589.562 313.711 589.734 313.717 589.899 313.717 590.441 313.717 590.95 313.651 591.412 313.521 591.731 313.43 592.028 313.317 592.295 313.186L592.323 313.174C592.352 313.159 592.379 313.143 592.407 313.129 592.448 313.107 592.49 313.083 592.533 313.061 592.593 313.03 592.638 313.006 592.673 312.983L592.711 312.958 592.932 312.825 593.146 312.681C593.707 312.306 594.205 311.815 594.619 311.386 595.106 310.869 595.52 310.326 595.787 309.963 596.433 309.08 596.898 308.317 597.302 307.628L597.588 307.134 596.563 300.467 599.001 304.688 601.438 300.467 600.413 307.134 600.704 307.636C601.105 308.319 601.567 309.08 602.218 309.967 602.482 310.326 602.897 310.869 603.391 311.394 603.795 311.815 604.294 312.306 604.853 312.681L605.07 312.825 605.312 312.97 605.329 312.983C605.364 313.006 605.41 313.03 605.467 313.061 605.512 313.083 605.554 313.107 605.596 313.129 605.623 313.143 605.65 313.159 605.679 313.174L605.706 313.186C605.974 313.317 606.271 313.43 606.591 313.521 607.052 313.651 607.561 313.717 608.101 313.717 608.268 313.717 608.439 313.711 608.612 313.698 609.342 313.643 610.183 313.465 611.1 313.167 611.979 312.878 612.945 312.479 613.964 311.983 616.059 310.967 618.281 309.633 620.371 308.342 621.255 307.794 622.152 307.23 623.066 306.658 624.489 305.767 625.959 304.842 627.465 303.93 630.411 302.14 632.885 300.748 635.25 299.546 638.235 298.032 641.011 296.844 643.742 295.92 646.825 294.87 649.862 294.179 652.774 293.863 653.521 293.782 654.288 293.724 655.052 293.694 655.438 293.673 655.87 293.662 656.349 293.662 656.664 293.662 656.98 293.666 657.292 293.673 657.733 293.687 658.081 293.702 658.404 293.72 658.404 293.72 658.64 293.739 658.742 293.745 658.996 293.763 659.257 293.783 659.529 293.815L660.067 293.87 660.578 293.936C660.899 293.974 661.212 294.025 661.514 294.076L661.641 294.1C664.251 294.538 666.796 295.35 669.216 296.513 670.288 297.025 671.306 297.593 672.251 298.2 672.441 298.318 672.614 298.435 672.785 298.55L672.962 298.669C673.167 298.809 673.379 298.95 673.59 299.106L674.191 299.538 674.766 299.985C675.075 300.225 675.355 300.461 675.628 300.689L675.862 300.885 676.066 301.066C676.317 301.283 676.575 301.511 676.819 301.748 677.447 302.335 677.966 302.854 678.407 303.333 679.37 304.354 680.063 305.236 680.436 305.712L680.45 305.732C680.872 306.289 681.093 306.597 681.101 306.611L685.113 312.221ZM577.803 286.551C576.798 287.558 574.977 288.066 572.392 288.066 564.31 288.066 547.77 282.907 536.299 271.437L536.12 271.255 535.945 271.082C528.569 263.707 524.745 253.081 522.835 245.465 520.779 237.266 520.447 230.871 520.433 230.603L520.361 229.109 521.856 229.182C522.123 229.194 528.516 229.529 536.717 231.585 544.332 233.493 554.958 237.317 562.333 244.694L562.513 244.874 562.688 245.048C571.173 253.531 575.358 263.854 577.097 269.252 579.122 275.533 580.521 283.832 577.803 286.551ZM520.015 179.775C520.283 179.789 526.676 180.121 534.876 182.178 542.491 184.086 553.117 187.91 560.492 195.286L560.672 195.468 560.847 195.641C569.332 204.126 573.518 214.448 575.257 219.846 577.282 226.127 578.681 234.426 575.962 237.145 574.957 238.149 573.136 238.66 570.551 238.66 570.551 238.66 570.551 238.66 570.551 238.66 562.47 238.66 545.929 233.5 534.459 222.03L534.28 221.849 534.104 221.675C526.729 214.3 522.904 203.674 520.995 196.058 518.939 187.858 518.606 181.464 518.593 181.197L518.519 179.702ZM580.657 250.953C580.657 238.953 584.997 228.696 587.583 223.649 590.594 217.775 595.472 210.918 599.316 210.918 603.161 210.918 608.041 217.775 611.051 223.649 613.638 228.696 617.976 238.953 617.976 250.953L617.974 251.209 617.976 251.455C617.976 261.886 613.167 272.103 609.134 278.838 604.788 286.09 600.502 290.846 600.321 291.045L599.316 292.154 598.311 291.045C598.131 290.846 593.846 286.09 589.501 278.838 585.467 272.103 580.657 261.886 580.657 251.455L580.659 251.2ZM580.657 165.799C580.657 155.369 585.467 145.152 589.501 138.416 593.846 131.163 598.131 126.407 598.311 126.209L599.316 125.099 600.321 126.209C600.502 126.407 604.788 131.163 609.134 138.416 613.167 145.152 617.976 155.369 617.976 165.799L617.974 166.053 617.976 166.302C617.976 178.3 613.638 188.559 611.051 193.605 608.041 199.479 603.161 206.336 599.316 206.336 595.472 206.336 590.594 199.479 587.583 193.605 584.997 188.559 580.657 178.3 580.657 166.302L580.659 166.047ZM622.745 269.252C624.484 263.854 628.671 253.531 637.155 245.048L637.334 244.87 637.511 244.691C644.885 237.317 655.511 233.493 663.127 231.585 671.325 229.529 677.72 229.194 677.985 229.182L679.483 229.109 679.41 230.603C679.397 230.871 679.062 237.266 677.007 245.465 675.098 253.081 671.275 263.707 663.899 271.081L663.717 271.261 663.542 271.437C652.073 282.907 635.534 288.066 627.453 288.066 627.45 288.066 627.453 288.066 627.45 288.066 624.866 288.066 623.045 287.558 622.04 286.551 619.322 283.832 620.719 275.533 622.745 269.252ZM622.745 219.846C624.484 214.448 628.671 204.126 637.155 195.641L637.334 195.464 637.511 195.286C644.885 187.91 655.511 184.086 663.127 182.178 671.325 180.121 677.72 179.789 677.985 179.775L679.483 179.702 679.41 181.197C679.397 181.464 679.062 187.858 677.007 196.058 675.098 203.674 671.275 214.3 663.899 221.675L663.717 221.854 663.542 222.03C652.073 233.5 635.534 238.66 627.453 238.66 627.45 238.66 627.453 238.66 627.45 238.66 624.866 238.66 623.045 238.149 622.04 237.145 619.322 234.426 620.719 226.127 622.745 219.846ZM599.001 87.9984C524.442 87.9984 464 148.439 464 222.999 464 297.558 524.442 358 599.001 358 673.561 358 734.002 297.558 734.002 222.999 734.002 148.439 673.561 87.9984 599.001 87.9984" fill="#FFFFFF"/><path d="M679.998 307.399C679.998 307.399 679.684 307.202 679.111 306.821 678.823 306.637 678.468 306.409 678.05 306.143 677.626 305.886 677.15 305.583 676.605 305.265 675.514 304.63 674.188 303.883 672.628 303.167 671.07 302.45 669.286 301.751 667.31 301.224 665.337 300.695 663.177 300.329 660.895 300.256 660.61 300.248 660.323 300.24 660.034 300.242 659.891 300.242 659.745 300.242 659.602 300.24 659.456 300.244 659.31 300.248 659.163 300.25 658.581 300.264 657.99 300.301 657.393 300.349 656.202 300.457 654.991 300.626 653.764 300.871 651.315 301.362 648.814 302.128 646.306 303.1 643.799 304.07 641.286 305.24 638.784 306.513 636.283 307.783 633.794 309.154 631.314 310.524 628.836 311.893 626.361 313.254 623.88 314.505 621.395 315.752 618.902 316.893 616.352 317.727 615.079 318.146 613.786 318.476 612.482 318.681 611.176 318.88 609.851 318.948 608.562 318.796 607.277 318.644 606.034 318.275 604.986 317.699 603.936 317.127 603.075 316.408 602.416 315.653 602.243 315.468 602.1 315.271 601.946 315.087 601.805 314.894 601.665 314.707 601.538 314.519 601.415 314.329 601.286 314.148 601.179 313.959 601.073 313.771 600.96 313.593 600.87 313.408 600.482 312.68 600.191 312 599.974 311.374 599.857 311.064 599.769 310.763 599.677 310.486 599.594 310.206 599.525 309.941 599.457 309.697 599.398 309.453 599.343 309.226 599.293 309.017 599.25 308.808 599.211 308.617 599.176 308.447 599.105 308.109 599.074 307.842 599.041 307.667 599.014 307.491 599 307.399 599 307.399 599 307.399 599.184 307.719 599.529 308.315 599.874 308.904 600.39 309.767 601.122 310.77 601.489 311.268 601.909 311.803 602.404 312.326 602.902 312.844 603.453 313.375 604.099 313.81 604.179 313.863 604.258 313.916 604.341 313.971 604.425 314.021 604.506 314.072 604.591 314.124 604.675 314.176 604.759 314.224 604.847 314.269 604.933 314.312 605.019 314.363 605.107 314.405 605.462 314.578 605.835 314.718 606.219 314.827 606.989 315.046 607.822 315.116 608.708 315.054 609.595 314.987 610.538 314.775 611.518 314.46 612.5 314.136 613.517 313.71 614.558 313.205 616.641 312.194 618.819 310.896 621.084 309.496 623.349 308.096 625.705 306.583 628.167 305.091 630.627 303.596 633.192 302.114 635.861 300.757 638.532 299.402 641.314 298.176 644.176 297.204 647.036 296.232 649.989 295.531 652.918 295.213 653.65 295.134 654.38 295.078 655.106 295.049 655.829 295.01 656.551 295.017 657.262 295.031 657.619 295.041 657.974 295.055 658.326 295.076 658.677 295.105 659.027 295.123 659.373 295.162 659.546 295.18 659.72 295.199 659.892 295.215 660.063 295.238 660.235 295.26 660.405 295.281 660.748 295.324 661.083 295.381 661.418 295.436 664.098 295.89 666.535 296.73 668.628 297.735 669.678 298.239 670.643 298.781 671.525 299.348 671.746 299.485 671.959 299.633 672.171 299.774 672.382 299.916 672.589 300.054 672.788 300.201 672.987 300.345 673.184 300.486 673.376 300.626 673.565 300.771 673.749 300.915 673.932 301.056 674.297 301.341 674.635 301.63 674.963 301.905 675.285 302.188 675.598 302.454 675.882 302.731 676.459 303.27 676.972 303.779 677.413 304.258 678.307 305.203 678.94 306.005 679.367 306.55 679.782 307.1 679.998 307.399 679.998 307.399" fill="#487307"/></g></svg>